<?xml version="1.0" standalone="no"?>
<!DOCTYPE svg PUBLIC "-//W3C//DTD SVG 20010904//EN"
 "http://www.w3.org/TR/2001/REC-SVG-20010904/DTD/svg10.dtd">
<svg version="1.0" xmlns="http://www.w3.org/2000/svg"
 width="500.000000pt" height="500.000000pt" viewBox="0 0 500.000000 500.000000"
 preserveAspectRatio="xMidYMid meet">
<metadata>
Created by potrace 1.11, written by Peter Selinger 2001-2013
</metadata>
<g transform="translate(0.000000,500.000000) scale(0.100000,-0.100000)"
fill="#000000" stroke="none">
<path d="M4319 4995 c-2 -1 -22 -6 -44 -9 -50 -8 -92 -15 -130 -21 -16 -3 -57
-9 -90 -14 -166 -25 -332 -52 -345 -56 -8 -2 -37 -7 -65 -10 -61 -9 -81 -12
-120 -18 -16 -3 -50 -9 -75 -12 -25 -4 -54 -9 -65 -11 -10 -2 -35 -6 -55 -9
-20 -3 -45 -7 -55 -9 -18 -3 -53 -9 -135 -21 -44 -7 -224 -36 -250 -40 -14 -2
-42 -7 -64 -10 -21 -4 -47 -8 -56 -10 -10 -2 -40 -7 -67 -11 -26 -3 -57 -8
-68 -10 -23 -4 -84 -14 -122 -18 -15 -2 -39 -7 -53 -10 -14 -3 -43 -8 -65 -11
-22 -3 -78 -12 -125 -20 -47 -8 -101 -16 -120 -19 -36 -4 -150 -23 -185 -30
-11 -2 -42 -7 -70 -10 -27 -4 -57 -9 -65 -11 -8 -2 -33 -6 -55 -9 -51 -7 -114
-17 -140 -22 -11 -2 -40 -7 -65 -10 -43 -6 -55 -8 -110 -18 -23 -5 -44 -8
-140 -22 -19 -3 -57 -9 -85 -14 -27 -5 -70 -12 -95 -15 -25 -3 -52 -8 -60 -10
-8 -3 -35 -7 -60 -10 -25 -3 -56 -7 -70 -10 -14 -2 -40 -7 -57 -10 -64 -10
-89 -14 -188 -30 -125 -20 -140 -23 -190 -30 -35 -5 -68 -11 -184 -30 -13 -2
-45 -7 -70 -11 -25 -4 -55 -8 -66 -10 -11 -3 -38 -7 -60 -9 -46 -6 -92 -14
-117 -21 -17 -5 -18 -116 -18 -2155 l0 -2149 263 0 c185 0 287 4 347 15 47 8
103 17 125 20 22 3 49 7 60 9 11 2 40 7 65 10 25 4 110 18 190 31 177 29 215
35 260 41 19 2 46 6 60 9 44 9 64 13 114 19 27 4 85 13 130 21 44 7 101 17
126 20 25 3 52 8 60 10 8 2 35 7 60 10 25 4 99 15 165 26 66 11 134 22 150 25
17 2 41 6 55 9 14 2 47 7 74 10 27 3 52 8 55 10 3 1 31 6 61 10 85 12 70 9
320 50 14 2 39 6 55 9 103 16 122 19 140 22 11 2 79 13 150 24 72 12 137 22
145 25 8 2 39 7 69 10 30 4 61 8 70 10 9 1 36 6 61 10 25 4 52 9 60 10 8 1 35
6 60 10 25 4 52 9 60 10 8 2 35 6 60 9 25 3 56 8 70 11 14 3 41 7 60 10 19 3
46 7 60 9 14 3 43 8 65 11 40 6 50 7 155 25 30 5 73 12 94 15 21 3 48 7 60 10
12 2 43 7 70 10 27 3 53 8 56 10 4 2 31 7 61 10 30 3 61 8 69 10 8 2 35 7 60
10 25 3 72 11 105 16 33 6 69 12 80 14 54 7 112 16 125 20 8 2 40 7 70 10 30
4 58 9 63 12 4 2 7 967 7 2144 l0 2139 -339 0 c-186 -1 -340 -3 -342 -5z"/>
</g>
</svg>
