<?xml version="1.0" encoding="utf-8"?>
<!-- Generator: Adobe Illustrator 21.1.0, SVG Export Plug-In . SVG Version: 6.00 Build 0)  -->
<svg version="1.1" id="Layer_1" xmlns="http://www.w3.org/2000/svg" xmlns:xlink="http://www.w3.org/1999/xlink" x="0px" y="0px"
	 viewBox="0 0 241 206" style="enable-background:new 0 0 241 206;" xml:space="preserve">
<style type="text/css">
	.st0{fill:#898989;}
</style>
<g id="black">
	<g id="slice" transform="translate(-900.000000, -500.000000)">
	</g>
	<g id="github" transform="translate(11.000000, 11.000000)">
		<path class="st0" d="M-96.8-67c0-2.9-0.1-10.7-0.2-21c-33.5,7.5-40.5-16.5-40.5-16.5c-5.5-14.3-13.4-18.1-13.4-18.1
			c-10.9-7.7,0.8-7.5,0.8-7.5c12.1,0.9,18.4,12.7,18.4,12.7c10.7,18.9,28.2,13.4,35,10.3c1.1-8,4.2-13.4,7.6-16.5
			c-26.7-3.1-54.8-13.7-54.8-61c0-13.5,4.7-24.5,12.4-33.1c-1.2-3.1-5.4-15.7,1.2-32.7c0,0,10.1-3.3,33.1,12.7
			c9.6-2.7,19.9-4.1,30.1-4.2c10.2,0,20.5,1.4,30.1,4.2c23-16,33.1-12.7,33.1-12.7c6.6,17,2.4,29.5,1.2,32.7
			c7.7,8.6,12.4,19.6,12.4,33.1c0,47.4-28.1,57.8-55,60.9c4.3,3.8,8.2,11.3,8.2,22.9c0,16.5-0.2,29.8-0.2,33.9
			c0,3.3,2.2,7.1,8.3,5.9c47.8-16.3,82.2-62.6,82.2-117.1c0-68.2-53.9-123.4-120.4-123.4c-66.5,0-120.4,55.3-120.4,123.4
			c0,54.5,34.5,100.8,82.3,117.1C-99-60-96.8-63.8-96.8-67z"/>
	</g>
</g>
<g id="black_1_">
	<g id="slice_1_" transform="translate(-600.000000, 0.000000)">
	</g>
	<g id="linkedin" transform="translate(16.000000, 17.000000)">
		<path class="st0" d="M-408.5,112V-39.8h-46.9V112H-408.5z M-408.5-93.6c-0.3-13.6-9.3-23.9-24-23.9c-14.7,0-24.3,10.3-24.3,23.9
			c0,13.3,9.3,23.9,23.8,23.9h0.3C-417.9-69.6-408.5-80.3-408.5-93.6z M-332,112V25.5c0-4.6,0.3-9.3,1.7-12.6
			c3.7-9.3,12.2-18.8,26.4-18.8c18.6,0,30.3,10.6,30.3,31.4V112h47.2V23.2c0-47.6-25.4-69.7-59.3-69.7c-27.8,0-40,15.5-46.7,26.1
			l0.3-20.3h-47.1c0.7,14.5,0,152.7,0,152.7H-332z"/>
	</g>
</g>
<g id="black_2_">
	<g id="slice_2_">
	</g>
	<g id="twitter" transform="translate(13.000000, 16.000000)">
		<path class="st0" d="M190,0.9c-9-10.2-21.9-16.8-36.1-17c-27.3-0.5-49.4,22.6-49.4,51.5c0,4.1,0.4,8.1,1.3,11.9
			C64.7,44.7,28.2,23.3,3.9-8.9C-0.4-1.2-2.8,7.8-2.8,17.5c0,18.3,8.7,34.6,22,44.2c-8.1-0.4-15.7-2.8-22.4-6.8c0,0.2,0,0.4,0,0.7
			c0,25.6,17,47,39.6,52c-4.1,1.2-8.5,1.8-13,1.8c-3.2,0-6.3-0.4-9.3-1c6.3,21,24.5,36.3,46.2,36.8c-16.9,14-38.2,22.4-61.4,22.4
			c-4,0-7.9-0.3-11.8-0.8c21.9,15,47.9,23.7,75.8,23.8c90.9,0,140.6-79.1,140.6-147.7c0-2.3,0-4.5-0.1-6.7
			c9.7-7.2,18-16.2,24.7-26.5c-8.9,4-18.4,6.6-28.4,7.8c10.2-6.3,18-16.3,21.7-28.4C211.8-5.4,201.2-1.2,190,0.9z"/>
	</g>
</g>
</svg>
